<?xml version="1.0" encoding="iso-8859-1"?>
<!-- Generator: Adobe Illustrator 17.1.0, SVG Export Plug-In . SVG Version: 6.00 Build 0)  -->
<!DOCTYPE svg PUBLIC "-//W3C//DTD SVG 1.1//EN" "http://www.w3.org/Graphics/SVG/1.1/DTD/svg11.dtd">
<svg version="1.1" id="Capa_1" xmlns="http://www.w3.org/2000/svg" xmlns:xlink="http://www.w3.org/1999/xlink" x="0px" y="0px"
	 viewBox="0 0 476.8 476.8" style="enable-background:new 0 0 476.8 476.8;" xml:space="preserve">
<path d="M238.4,0c-53.589,0-97.188,43.598-97.188,97.187v211.355c0,10.814,8.799,19.613,19.613,19.613h47.277v118.348
	c0,16.706,13.591,30.297,30.297,30.297s30.297-13.591,30.297-30.297v-63.93c3.919,3.15,8.89,5.04,14.297,5.04
	c12.607,0,22.864-10.257,22.864-22.865v-36.593h10.116c10.814,0,19.613-8.798,19.613-19.613V97.187C335.587,43.598,291.99,0,238.4,0
	z M252.697,446.503c0,7.883-6.413,14.297-14.297,14.297s-14.297-6.414-14.297-14.297V328.155h28.594V446.503z M315.974,312.155
	h-18.116c-4.418,0-8,3.582-8,8v44.593c0,3.785-3.079,6.865-6.864,6.865s-6.864-3.08-6.864-6.865v-44.593c0-4.418-3.582-8-8-8h-7.433
	h-44.594h-55.277c-1.992,0-3.613-1.621-3.613-3.613v-24.981H251.2c4.418,0,8-3.582,8-8s-3.582-8-8-8h-93.987V97.187
	C157.212,52.42,193.633,16,238.4,16s81.188,36.42,81.188,81.187v170.374H302.4c-4.418,0-8,3.582-8,8s3.582,8,8,8h17.188v24.981
	C319.587,310.534,317.966,312.155,315.974,312.155z M211.813,82.323v148.645c0,4.418-3.582,8-8,8s-8-3.582-8-8V82.323
	c0-4.418,3.582-8,8-8S211.813,77.904,211.813,82.323z M280.987,82.323v148.645c0,4.418-3.582,8-8,8s-8-3.582-8-8V82.323
	c0-4.418,3.582-8,8-8S280.987,77.904,280.987,82.323z"/>
<g>
</g>
<g>
</g>
<g>
</g>
<g>
</g>
<g>
</g>
<g>
</g>
<g>
</g>
<g>
</g>
<g>
</g>
<g>
</g>
<g>
</g>
<g>
</g>
<g>
</g>
<g>
</g>
<g>
</g>
</svg>
