<?xml version="1.0" encoding="iso-8859-1"?>
<!-- Generator: Adobe Illustrator 18.0.0, SVG Export Plug-In . SVG Version: 6.00 Build 0)  -->
<!DOCTYPE svg PUBLIC "-//W3C//DTD SVG 1.1//EN" "http://www.w3.org/Graphics/SVG/1.1/DTD/svg11.dtd">
<svg version="1.1" id="Capa_1" xmlns="http://www.w3.org/2000/svg" xmlns:xlink="http://www.w3.org/1999/xlink" x="0px" y="0px"
	 viewBox="0 0 57 57" style="enable-background:new 0 0 57 57;" xml:space="preserve">
<g>
	<path d="M26.5,32.338c0,2.23,1.815,4.046,4.047,4.046c0.682,0,2.101,0,6.197-8.408c0.256-0.526,0.149-1.158-0.264-1.572
		c-0.415-0.413-1.045-0.52-1.573-0.263C26.5,30.239,26.5,31.657,26.5,32.338z M30.458,34.382c-1.059-0.045-1.911-0.897-1.956-1.955
		c0.245-0.423,1.693-1.629,5.603-3.647C32.088,32.688,30.881,34.137,30.458,34.382z"/>
	<path d="M27.5,25h1c0.553,0,1-0.447,1-1s-0.447-1-1-1h-1c-0.553,0-1,0.447-1,1S26.947,25,27.5,25z"/>
	<path d="M28.5,42h-1c-0.553,0-1,0.447-1,1s0.447,1,1,1h1c0.553,0,1-0.447,1-1S29.053,42,28.5,42z"/>
	<path d="M19.5,32h-1c-0.553,0-1,0.447-1,1s0.447,1,1,1h1c0.553,0,1-0.447,1-1S20.053,32,19.5,32z"/>
	<path d="M36.5,33c0,0.553,0.447,1,1,1h1c0.553,0,1-0.447,1-1s-0.447-1-1-1h-1C36.947,32,36.5,32.447,36.5,33z"/>
	<path d="M51.5,1V0h-46v1c0,6.843,6.929,13.007,16,15.173v4.559c-4.751,2.511-8,7.499-8,13.237c0,2.146,0.462,4.184,1.28,6.031
		h-3.421c-1.257,0-2.438,0.614-3.159,1.644c-0.72,1.029-0.894,2.349-0.464,3.529L10.581,53h4.735c-0.414,1.161-1.514,2-2.816,2
		c-0.553,0-1,0.447-1,1s0.447,1,1,1c2.414,0,4.434-1.721,4.899-4h23.202c0.465,2.279,2.484,4,4.899,4c0.553,0,1-0.447,1-1
		s-0.447-1-1-1c-1.302,0-2.402-0.839-2.816-2h4.735l2.846-7.827c0.43-1.181,0.256-2.5-0.464-3.529
		C49.079,40.614,47.898,40,46.642,40h-4.484c0.817-1.847,1.28-3.885,1.28-6.031c0-5.713-3.22-10.685-7.938-13.207v-4.589
		C44.571,14.007,51.5,7.843,51.5,1z M7.567,2h41.865c-0.674,5.072-6.38,10.35-14.489,12.254l-0.651,0.138
		c-0.805,0.17-1.618,0.297-2.434,0.395c-0.251,0.03-0.501,0.06-0.756,0.083c-0.289,0.027-0.579,0.05-0.869,0.068
		c-0.463,0.028-0.93,0.046-1.403,0.051c-0.221,0.002-0.443,0.002-0.664,0c-0.473-0.005-0.94-0.023-1.403-0.051
		c-0.29-0.018-0.58-0.041-0.869-0.068c-0.254-0.023-0.505-0.053-0.756-0.083c-0.816-0.098-1.629-0.225-2.434-0.395l-0.651-0.138
		C13.948,12.35,8.242,7.072,7.567,2z M41.086,42h5.556c0.614,0,1.168,0.288,1.521,0.791c0.352,0.503,0.434,1.121,0.224,1.698
		L46.019,51H11.981l-2.367-6.511c-0.21-0.577-0.128-1.195,0.224-1.698C10.19,42.288,10.744,42,11.358,42h4.493
		c0.018,0.029,0.039,0.055,0.057,0.083c0.119,0.183,0.243,0.362,0.369,0.54c0.116,0.162,0.236,0.32,0.357,0.477
		c0.202,0.261,0.411,0.514,0.63,0.76c0.135,0.153,0.27,0.305,0.411,0.452c0.158,0.165,0.321,0.326,0.487,0.484
		c0.116,0.11,0.235,0.216,0.354,0.322c0.315,0.281,0.641,0.548,0.979,0.803c0.093,0.07,0.184,0.141,0.279,0.209
		c0.217,0.155,0.437,0.305,0.662,0.449c0.065,0.042,0.132,0.08,0.198,0.121c0.417,0.258,0.848,0.495,1.291,0.711
		c0.096,0.047,0.192,0.095,0.29,0.14c0.24,0.111,0.481,0.219,0.728,0.317c0.123,0.049,0.25,0.091,0.374,0.137
		c0.367,0.135,0.738,0.258,1.118,0.365c0.218,0.062,0.437,0.118,0.658,0.17c0.17,0.039,0.339,0.083,0.512,0.116
		c0.387,0.077,0.779,0.134,1.173,0.18c0.12,0.014,0.241,0.024,0.362,0.035c0.441,0.04,0.883,0.067,1.33,0.067
		s0.889-0.027,1.33-0.067c0.121-0.011,0.241-0.021,0.362-0.035c0.394-0.046,0.786-0.103,1.173-0.18
		c0.173-0.034,0.341-0.077,0.512-0.116c0.221-0.052,0.44-0.108,0.658-0.17c0.38-0.106,0.751-0.23,1.118-0.365
		c0.125-0.046,0.251-0.088,0.374-0.137c0.247-0.098,0.488-0.206,0.728-0.317c0.097-0.045,0.193-0.093,0.29-0.14
		c0.443-0.217,0.873-0.453,1.291-0.711c0.066-0.041,0.133-0.079,0.198-0.121c0.225-0.144,0.445-0.293,0.662-0.449
		c0.095-0.068,0.187-0.14,0.281-0.21c0.337-0.254,0.663-0.521,0.978-0.802c0.119-0.106,0.238-0.212,0.354-0.322
		c0.166-0.158,0.328-0.318,0.487-0.484c0.141-0.147,0.276-0.299,0.411-0.452c0.218-0.247,0.428-0.5,0.63-0.76
		c0.121-0.157,0.242-0.315,0.357-0.477c0.127-0.178,0.25-0.357,0.369-0.54C41.047,42.055,41.068,42.029,41.086,42z M41.438,33.969
		c0,2.22-0.562,4.311-1.55,6.14l-0.113,0.193c-0.078,0.14-0.166,0.273-0.249,0.41c-0.207,0.338-0.427,0.664-0.661,0.978
		c-0.07,0.094-0.138,0.189-0.21,0.281c-0.137,0.174-0.278,0.343-0.423,0.508c-0.075,0.086-0.153,0.169-0.23,0.253
		c-0.301,0.326-0.615,0.637-0.946,0.93c-0.038,0.033-0.074,0.069-0.112,0.102c-0.187,0.162-0.379,0.316-0.574,0.467
		c-0.055,0.042-0.111,0.083-0.167,0.125c-0.619,0.461-1.276,0.867-1.965,1.212c-0.059,0.029-0.118,0.057-0.177,0.085
		c-0.398,0.192-0.807,0.362-1.224,0.512c-0.084,0.03-0.166,0.063-0.25,0.092c-0.197,0.067-0.396,0.125-0.596,0.182
		c-0.18,0.051-0.362,0.097-0.545,0.141c-0.182,0.043-0.363,0.087-0.547,0.122c-0.309,0.059-0.621,0.107-0.938,0.144
		c-0.114,0.013-0.229,0.024-0.344,0.035c-0.379,0.033-0.761,0.058-1.148,0.058s-0.769-0.025-1.148-0.058
		c-0.115-0.01-0.23-0.021-0.344-0.035c-0.316-0.036-0.629-0.085-0.938-0.144c-0.184-0.036-0.366-0.079-0.548-0.122
		c-0.183-0.043-0.365-0.089-0.545-0.14c-0.2-0.057-0.399-0.116-0.596-0.183c-0.084-0.028-0.166-0.062-0.25-0.092
		c-0.417-0.151-0.825-0.32-1.224-0.512c-0.059-0.028-0.119-0.056-0.177-0.085c-0.689-0.344-1.346-0.751-1.965-1.212
		c-0.056-0.042-0.112-0.082-0.167-0.125c-0.195-0.151-0.388-0.305-0.574-0.467c-0.038-0.033-0.074-0.068-0.111-0.101
		c-0.331-0.293-0.646-0.604-0.947-0.931c-0.077-0.084-0.155-0.167-0.23-0.253c-0.145-0.166-0.286-0.335-0.423-0.508
		c-0.072-0.092-0.141-0.187-0.21-0.281c-0.234-0.314-0.455-0.64-0.661-0.978c-0.083-0.137-0.171-0.27-0.249-0.41l-0.113-0.193
		c-0.987-1.829-1.55-3.919-1.55-6.14c0-5.188,3.069-9.661,7.48-11.733c0.421-0.197,0.848-0.372,1.282-0.522
		c0.009-0.003,0.017-0.007,0.026-0.01c2.284-0.782,4.718-0.907,7.048-0.375c0.001,0,0.002,0.001,0.003,0.001
		c0.458,0.105,0.912,0.236,1.359,0.391c0.021,0.007,0.041,0.015,0.061,0.022c0.426,0.15,0.846,0.324,1.259,0.52
		C38.396,24.349,41.438,28.805,41.438,33.969z M33.5,19.881c-0.048-0.017-0.096-0.029-0.144-0.045
		c-0.284-0.099-0.571-0.189-0.863-0.271c-0.182-0.051-0.364-0.097-0.547-0.141c-0.239-0.057-0.477-0.113-0.72-0.159
		c-0.267-0.051-0.536-0.087-0.806-0.123c-0.181-0.024-0.359-0.053-0.542-0.071C29.411,19.027,28.942,19,28.469,19
		c-0.47,0-0.938,0.027-1.402,0.071c-0.18,0.017-0.357,0.046-0.535,0.069c-0.269,0.036-0.538,0.073-0.804,0.123
		c-0.238,0.044-0.472,0.098-0.706,0.153c-0.185,0.044-0.369,0.091-0.552,0.142c-0.285,0.079-0.566,0.165-0.844,0.261
		c-0.042,0.014-0.084,0.024-0.125,0.039v-3.28c0.806,0.135,1.625,0.24,2.455,0.31c0.02,0.002,0.04,0.004,0.06,0.006
		C26.835,16.962,27.664,17,28.5,17s1.665-0.038,2.485-0.106c0.02-0.002,0.04-0.004,0.06-0.006c0.83-0.07,1.649-0.175,2.455-0.31
		V19.881z"/>
	<path d="M27.489,12c0.004,0,0.008,0,0.011,0c0.553,0,1-0.448,1-1c0-0.553-0.448-1-1-1c-0.004,0-0.007,0-0.011,0
		c-2.508,0-4.804-0.38-6.823-1.129c-0.518-0.193-1.093,0.072-1.285,0.59s0.072,1.093,0.59,1.285C22.214,11.578,24.743,12,27.489,12z
		"/>
	<path d="M16.5,4.973C16.485,4.42,16.007,3.977,15.473,4c-0.552,0.016-0.987,0.475-0.973,1.027c0.036,1.321,0.669,2.594,1.783,3.582
		c0.19,0.169,0.428,0.252,0.664,0.252c0.275,0,0.551-0.113,0.748-0.336c0.366-0.413,0.329-1.046-0.084-1.412
		C16.915,6.496,16.521,5.735,16.5,4.973z"/>
</g>
<g>
</g>
<g>
</g>
<g>
</g>
<g>
</g>
<g>
</g>
<g>
</g>
<g>
</g>
<g>
</g>
<g>
</g>
<g>
</g>
<g>
</g>
<g>
</g>
<g>
</g>
<g>
</g>
<g>
</g>
</svg>
