<?xml version="1.0" encoding="utf-8"?>
<!-- Generator: Adobe Illustrator 19.0.0, SVG Export Plug-In . SVG Version: 6.00 Build 0)  -->
<svg version="1.2" baseProfile="tiny" xmlns="http://www.w3.org/2000/svg" xmlns:xlink="http://www.w3.org/1999/xlink" x="0px"
	 y="0px" viewBox="0 0 202 125" xml:space="preserve">
<g id="Layer_2" display="none">
	<rect id="XMLID_2_" x="-176.1" y="-191.5" display="inline" fill="#2E2E2E" width="675.2" height="799.1"/>
</g>
<g id="Layer_1">
	<g id="XMLID_39_">
		<path id="XMLID_61_" fill="#FFFFFF" d="M9.3,22c0-1.1,0.4-1.6,1.5-1.6h5.4c1.1,0,1.5,0.5,1.5,1.6v33.9c0,1.1-0.4,1.6-1.5,1.6h-5.5
			c-1.1,0-1.5-0.5-1.5-1.6V22z M20.3,39.4c0.8,0.4,1.7,0.6,2.7,0.6c2,0,2.1-1.2,2.1-2.2v-8.4c0-1.1-0.1-2.2-2.1-2.2
			c-1,0-1.9,0.3-2.7,0.7v-6.8c1.4-0.6,3.1-1.2,5.4-1.2c5.4,0,7.8,3.1,7.8,8.2v11c0,5-2.5,8.2-7.8,8.2c-2.3,0-4-0.5-5.4-1.1V39.4z"/>
		<path id="XMLID_59_" fill="#FFFFFF" d="M37.8,28.2c0-5,3.4-8.3,11.4-8.3s11.1,3.2,11.1,8.3v5.9c0,1-0.4,1.4-1.4,1.4H48.6v-5.4h3.9
			v-1.5c0-1.6-1-2.4-3.2-2.4s-3.2,0.8-3.2,2.4v10.1c0,1.6,1,2.3,3.2,2.3s3.2-0.7,3.2-2.3v-0.1c0-1.1,0.4-1.5,1.5-1.5h4.6
			c1.1,0,1.5,0.4,1.5,1.5V39c0,5-2.9,8.3-10.9,8.3S37.8,44.1,37.8,39V28.2z"/>
		<path id="XMLID_56_" fill="#FFFFFF" d="M65,45.3V21.9c0-1.1,0.4-1.5,1.5-1.5H72c1.1,0,1.5,0.4,1.5,1.5v23.4c0,1.1-0.4,1.6-1.5,1.6
			h-5.5C65.4,46.9,65,46.4,65,45.3z M76.1,28.4v-7.3c1.2-0.6,2.7-1.2,4.6-1.2c1.1,0,1.6,0.4,1.6,1.5v4.1c0,1.1-0.5,1.5-1.6,1.6
			C78.7,27.4,77.3,27.9,76.1,28.4z"/>
		<path id="XMLID_53_" fill="#FFFFFF" d="M84.8,28.2c0-4.7,3.7-7.9,10.9-8.2v6.7c-1.5,0.2-2.4,0.8-2.4,2.2v9.4
			c0,1.4,0.9,2.1,2.4,2.3v6.6c-7.2-0.3-10.9-3.4-10.9-8.2V28.2z M98.2,40.6c1.4-0.2,2.4-0.9,2.4-2.3v-9.4c0-1.4-1-2-2.4-2.2V20
			c7.1,0.3,10.9,3.5,10.9,8.2V39c0,4.8-3.8,7.9-10.9,8.2V40.6z"/>
		<path id="XMLID_50_" fill="#FFFFFF" d="M113.8,15.8v-4.4c0-1.1,0.4-1.6,1.5-1.6h5.5c1.1,0,1.5,0.5,1.5,1.6v4.4
			c0,1.1-0.4,1.5-1.5,1.5h-5.5C114.3,17.4,113.8,16.9,113.8,15.8z M113.8,22c0-1.1,0.4-1.6,1.5-1.6h5.5c1.1,0,1.5,0.5,1.5,1.6v23.3
			c0,1.1-0.4,1.6-1.5,1.6h-5.5c-1.1,0-1.5-0.5-1.5-1.6V22z"/>
		<path id="XMLID_47_" fill="#FFFFFF" d="M127.1,28.1c0-5,2.5-8.2,7.8-8.2c2.2,0,4,0.5,5.4,1.2v6.7c-0.9-0.4-1.8-0.7-2.7-0.7
			c-2,0-2.1,1.2-2.1,2.2v8.4c0,1.1,0.1,2.2,2.1,2.2c0.9,0,1.9-0.3,2.7-0.6v6.7c-1.4,0.7-3.2,1.2-5.4,1.2c-5.4,0-7.8-3.1-7.8-8.2
			V28.1z M142.9,11.4c0-1.1,0.4-1.6,1.5-1.6h5.5c1.1,0,1.5,0.5,1.5,1.6v33.9c0,1.1-0.4,1.6-1.5,1.6h-5.5c-1.1,0-1.5-0.5-1.5-1.6
			V11.4z"/>
		<path id="XMLID_44_" fill="#FFFFFF" d="M156.7,15.8v-4.4c0-1.1,0.4-1.6,1.5-1.6h5.5c1.1,0,1.5,0.5,1.5,1.6v4.4
			c0,1.1-0.4,1.5-1.5,1.5h-5.5C157.1,17.4,156.7,16.9,156.7,15.8z M156.7,22c0-1.1,0.4-1.6,1.5-1.6h5.5c1.1,0,1.5,0.5,1.5,1.6v23.3
			c0,1.1-0.4,1.6-1.5,1.6h-5.5c-1.1,0-1.5-0.5-1.5-1.6V22z"/>
		<path id="XMLID_40_" fill="#FFFFFF" d="M169.9,28.2c0-4.7,3.1-7.9,10.2-8.2v6.7c-1.2,0.3-1.7,0.9-1.7,2.2v9.5c0,1.3,0.5,2,1.7,2.2
			v6.7c-7.2-0.3-10.2-3.4-10.2-8.2V28.2z M184.7,28.9c0-1.4-0.7-2-2.1-2.2V20c7,0.3,10.2,3.5,10.2,8.2V29c0,1.1-0.4,1.5-1.5,1.5h-5
			c-1.1,0-1.5-0.4-1.5-1.5V28.9z M182.7,40.6c1.4-0.2,2.1-0.8,2.1-2.3v-0.6c0-1.1,0.4-1.5,1.5-1.5h5c1.1,0,1.5,0.4,1.5,1.5V39
			c0,4.8-3.2,7.8-10.2,8.2V40.6z"/>
	</g>
	<g id="XMLID_25_">
		<path id="XMLID_36_" fill="#FFFFFF" d="M88,62.8v-0.5c0-0.3,0.2-0.4,0.5-0.5l2.9-0.1h0.6v-5.9c0-0.3,0.1-0.5,0.4-0.5h0.8
			c0.3,0,0.5,0.2,0.5,0.5v5.9h6.6c0.3,0,0.5,0.2,0.5,0.5v0.6c0,0.3-0.2,0.5-0.5,0.5H88.5C88.2,63.2,88,63.1,88,62.8z M92.1,65.6h1.7
			v15.7c0,2.8,1.5,4.8,7.3,4.8h0.7c0.3,0,0.5,0.1,0.5,0.5v0.6c0,0.3-0.2,0.5-0.5,0.5h-0.9c-7,0-8.9-2.5-8.9-6.2V65.6z"/>
		<path id="XMLID_33_" fill="#FFFFFF" d="M108,79.2c0-3.4,2.2-6,6.3-6h7.6v1.5h-7.4c-3.2,0-4.8,2-4.8,4.7v2.5c0,2.7,1.8,4.7,5.7,4.7
			c2.6,0,4.8-0.7,6.5-1.6v1.5c-1.7,0.8-4,1.6-6.7,1.6c-5,0-7.2-2.6-7.2-6V79.2z M124.4,67.5c0-2.8-1.5-4.8-7.2-4.8
			c-5.7,0-7.2,2-7.2,4.8v1c0,0.4-0.2,0.5-0.5,0.5h-0.7c-0.4,0-0.5-0.1-0.5-0.5v-1c0-3.7,2-6.2,8.9-6.2c6.9,0,8.9,2.5,8.9,6.2v19.8
			c0,0.3-0.2,0.5-0.5,0.5h-0.8c-0.4,0-0.5-0.2-0.5-0.5V67.5z"/>
		<path id="XMLID_30_" fill="#FFFFFF" d="M135.5,51.1c0-0.3,0.1-0.5,0.4-0.5h0.8c0.3,0,0.5,0.2,0.5,0.5v36.1c0,0.3-0.2,0.5-0.5,0.5
			h-0.8c-0.3,0-0.4-0.2-0.4-0.5V51.1z M139.8,84.9c1.6,0.8,3.8,1.6,6.5,1.6c4,0,5.8-2.1,5.8-4.8V67.6c0-2.7-1.7-4.8-5.8-4.8
			c-2.6,0-4.8,0.7-6.5,1.6v-1.6c1.7-0.8,4-1.6,6.8-1.6c5,0,7.2,2.5,7.2,6.2v14.5c0,3.6-2.2,6.2-7.2,6.2c-2.8,0-5.1-0.7-6.8-1.6V84.9
			z"/>
		<path id="XMLID_28_" fill="#FFFFFF" d="M162.8,51.1c0-0.3,0.1-0.5,0.4-0.5h0.8c0.3,0,0.5,0.2,0.5,0.5v36.1c0,0.3-0.2,0.5-0.5,0.5
			h-0.8c-0.3,0-0.4-0.2-0.4-0.5V51.1z"/>
		<path id="XMLID_26_" fill="#FFFFFF" d="M173.5,67.4c0-3.7,2.1-6.2,9.1-6.2c6.9,0,9,2.5,9,6.2V74c0,0.3-0.2,0.5-0.4,0.5h-13.4v-1.4
			h12.1v-5.6c0-2.8-1.6-4.8-7.3-4.8c-5.7,0-7.3,2-7.3,4.8v14.3c0,2.8,1.6,4.8,7.3,4.8c5.7,0,7.3-2.1,7.3-4.8v-1.3
			c0-0.3,0.2-0.5,0.5-0.5h0.7c0.3,0,0.5,0.2,0.5,0.5v1.4c0,3.6-2.1,6.2-9,6.2c-7,0-9.1-2.6-9.1-6.2V67.4z"/>
	</g>
	<rect id="XMLID_24_" x="117.9" y="106" fill="#F04B4C" width="7" height="7"/>
	<g id="XMLID_6_">
		<path id="XMLID_21_" fill="#F04B4C" d="M130.3,112.8V98.7c0-0.2,0.1-0.3,0.2-0.3h0.5c0.2,0,0.3,0.1,0.3,0.3v14.1
			c0,0.2-0.1,0.3-0.3,0.3h-0.5C130.4,113.1,130.3,113,130.3,112.8z M132.7,100.3v-0.9c1-0.6,2.3-1.2,3.8-1.2c0.2,0,0.3,0.1,0.3,0.2
			v0.4c0,0.2-0.1,0.3-0.3,0.3C135,99.2,133.7,99.7,132.7,100.3z"/>
		<path id="XMLID_18_" fill="#F04B4C" d="M139.7,101.7c0-1.9,1.1-3.3,4.4-3.5v0.8c-2.6,0.1-3.4,1.3-3.4,2.7v8c0,1.5,0.8,2.5,3.4,2.7
			v0.8c-3.3-0.1-4.4-1.5-4.4-3.5V101.7z M145.6,112.4c2.6-0.2,3.5-1.2,3.5-2.7v-8c0-1.4-0.8-2.5-3.5-2.7v-0.8
			c3.3,0.2,4.4,1.5,4.4,3.5v8.1c0,1.9-1.1,3.3-4.4,3.5V112.4z"/>
		<path id="XMLID_14_" fill="#F04B4C" d="M154.7,101.7c0-1.9,1-3.3,4.3-3.5v0.8c-2.6,0.1-3.3,1.3-3.3,2.7v8c0,1.5,0.7,2.5,3.3,2.7
			v0.8c-3.4-0.1-4.3-1.5-4.3-3.5V101.7z M163.8,101.7c0-1.4-0.7-2.5-3.3-2.7v-0.8c3.3,0.2,4.3,1.5,4.3,3.5v0.6
			c0,0.2-0.1,0.3-0.3,0.3H164c-0.2,0-0.3-0.1-0.3-0.3V101.7z M160.4,112.4c2.6-0.2,3.3-1.2,3.3-2.7v-0.8c0-0.2,0.1-0.3,0.3-0.3h0.4
			c0.2,0,0.3,0.1,0.3,0.3v0.9c0,1.9-1,3.3-4.3,3.5V112.4z"/>
		<path id="XMLID_11_" fill="#F04B4C" d="M169.1,92.5c0-0.2,0.1-0.3,0.2-0.3h0.5c0.2,0,0.3,0.1,0.3,0.3v20.3c0,0.2-0.1,0.3-0.3,0.3
			h-0.5c-0.2,0-0.2-0.1-0.2-0.3V92.5z M171.5,104.4l5.6-5.7c0.1-0.1,0.3-0.2,0.4-0.2h0.6c0.2,0,0.3,0.1,0.1,0.3l-5.9,6l6.8,8
			c0.1,0.1,0.1,0.3-0.1,0.3h-0.6c-0.2,0-0.3-0.1-0.5-0.3l-6.4-7.6V104.4z"/>
		<path id="XMLID_7_" fill="#F04B4C" d="M181.3,109.4c0-0.1,0.1-0.2,0.3-0.2h0.4c0.1,0,0.2,0.1,0.2,0.2v0.8c0,1.3,1,2.1,3.4,2.3v0.8
			c-3-0.1-4.3-1.4-4.3-3V109.4z M187.1,113.3v-0.8c2.3-0.2,3.4-1,3.4-2.3v-1.5c0-1.1-1-1.7-2-2l-4.7-1.4c-1-0.3-2.3-1.3-2.3-2.7
			v-1.3c0-1.6,1.2-2.9,4.2-3V99c-2.3,0.1-3.2,1-3.2,2.2v1.1c0,1.1,1.1,1.8,1.8,2.1l4.7,1.4c1.3,0.4,2.4,1.3,2.4,2.6v1.8
			C191.5,111.9,190.2,113.1,187.1,113.3z M190.3,102.3v-1c0-1.2-1-2.1-3.2-2.2v-0.8c2.9,0.1,4.1,1.5,4.1,3v1c0,0.1-0.1,0.2-0.2,0.2
			h-0.5C190.4,102.5,190.3,102.4,190.3,102.3z"/>
	</g>
</g>
</svg>
